<svg xmlns="http://www.w3.org/2000/svg" width="36.013" height="24.013" viewBox="0 0 36.013 24.013">
  <g id="矩形_5" data-name="矩形 5" transform="translate(-55.993 -136.994)" fill="rgba(24,63,111,0.4)">
    <path d="M 68 160.2992858886719 L 56.70061492919922 149 L 68 137.7007141113281 L 79.29920196533203 149 L 68 160.2992858886719 Z" stroke="none"/>
    <path d="M 68.00000762939453 138.4078369140625 L 57.40773773193359 149 L 68.00000762939453 159.5921630859375 L 78.59207153320313 149 L 68.00000762939453 138.4078369140625 M 68.00001525878906 136.9936065673828 L 80.00628662109375 149 L 68.00001525878906 161.0063934326172 L 55.99351501464844 149 L 68.00001525878906 136.9936065673828 Z" stroke="none" fill="#16cffe"/>
  </g>
  <g id="矩形_5_拷贝" data-name="矩形 5 拷贝" transform="translate(-55.993 -136.994)" fill="rgba(24,63,111,0.4)">
    <path d="M 79.99990081787109 160.2992858886719 L 68.70069885253906 149 L 79.99990081787109 137.7007141113281 L 91.29928588867188 149 L 79.99990081787109 160.2992858886719 Z" stroke="none"/>
    <path d="M 79.99989318847656 138.4078369140625 L 69.40782928466797 149 L 79.99989318847656 159.5921630859375 L 90.5921630859375 149 L 79.99989318847656 138.4078369140625 M 79.99988555908203 136.9936065673828 L 92.00638580322266 149 L 79.99988555908203 161.0063934326172 L 67.99361419677734 149 L 79.99988555908203 136.9936065673828 Z" stroke="none" fill="#16cffe"/>
  </g>
</svg>
